STARTFONT 2.1
FONT -FontForge-Futura Hv BT-Book-R-Normal--24-240-75-75-P-140-ISO10646-1
SIZE 24 75 75
FONTBOUNDINGBOX 23 25 0 -6
COMMENT "Generated by fontforge, http://fontforge.sourceforge.net"
COMMENT "Copyright 1990-1993 Bitstream Inc.  All rights reserved."
STARTPROPERTIES 39
FOUNDRY "FontForge"
FAMILY_NAME "Futura Hv BT"
WEIGHT_NAME "Book"
SLANT "R"
SETWIDTH_NAME "Normal"
ADD_STYLE_NAME ""
PIXEL_SIZE 24
POINT_SIZE 240
RESOLUTION_X 75
RESOLUTION_Y 75
SPACING "P"
AVERAGE_WIDTH 140
CHARSET_REGISTRY "ISO10646"
CHARSET_ENCODING "1"
FONTNAME_REGISTRY ""
CHARSET_COLLECTIONS "ISO10646-1"
FONT_NAME "FuturaBT-Heavy"
FACE_NAME "Futura Heavy BT"
COPYRIGHT "Copyright 1990-1993 Bitstream Inc.  All rights reserved."
FONT_VERSION "mfgpctt-v1.52 Tuesday, January 12, 1993 3:42:48 pm (EST)"
FONT_ASCENT 19
FONT_DESCENT 5
UNDERLINE_POSITION -4
UNDERLINE_THICKNESS 3
X_HEIGHT 11
CAP_HEIGHT 16
RAW_ASCENT 799
RAW_DESCENT 200
RELATIVE_WEIGHT 40
RELATIVE_SETWIDTH 50
SUPERSCRIPT_X 0
SUPERSCRIPT_Y 6
SUPERSCRIPT_SIZE 14
SUBSCRIPT_X 0
SUBSCRIPT_Y -5
SUBSCRIPT_SIZE 14
FIGURE_WIDTH 15
AVG_LOWERCASE_WIDTH 129
AVG_UPPERCASE_WIDTH 160
ENDPROPERTIES
CHARS 96
STARTCHAR exclam
ENCODING 33
SWIDTH 335 0
DWIDTH 8 0
BBX 4 17 1 0
BITMAP
70
70
70
70
70
70
70
70
70
70
70
00
00
60
F0
F0
60
ENDCHAR
STARTCHAR quotedbl
ENCODING 34
SWIDTH 331 0
DWIDTH 8 0
BBX 6 7 1 10
BITMAP
CC
CC
CC
CC
CC
CC
CC
ENDCHAR
STARTCHAR numbersign
ENCODING 35
SWIDTH 769 0
DWIDTH 18 0
BBX 17 17 1 0
BITMAP
01C600
01CE00
018E00
038C00
039C00
3FFF80
3FFF00
063800
063000
0E3000
7FFE00
FFFE00
1CE000
18E000
38C000
39C000
31C000
ENDCHAR
STARTCHAR dollar
ENCODING 36
SWIDTH 612 0
DWIDTH 15 0
BBX 11 20 2 -2
BITMAP
0400
1F00
7F80
FFC0
F480
E400
E400
7C00
7F00
1F80
07C0
05E0
04E0
44E0
65E0
FFC0
7FC0
3F00
0400
0400
ENDCHAR
STARTCHAR percent
ENCODING 37
SWIDTH 845 0
DWIDTH 20 0
BBX 19 17 0 0
BITMAP
3C0200
7E0400
E70400
E70800
E71000
E71000
E72000
7E2000
3C4780
008FC0
009CE0
011CE0
031CE0
021CE0
041CE0
040FC0
080780
ENDCHAR
STARTCHAR ampersand
ENCODING 38
SWIDTH 714 0
DWIDTH 17 0
BBX 16 17 1 0
BITMAP
0F80
1FC0
38E0
38E0
38E0
3DC0
1F80
1F00
3F84
7BCE
F3DE
E1FC
E0FC
E0F8
71FC
7FFE
1F9F
ENDCHAR
STARTCHAR quotesingle
ENCODING 39
SWIDTH 171 0
DWIDTH 4 0
BBX 2 7 1 10
BITMAP
C0
C0
C0
C0
C0
C0
C0
ENDCHAR
STARTCHAR parenleft
ENCODING 40
SWIDTH 335 0
DWIDTH 8 0
BBX 5 23 2 -6
BITMAP
18
38
30
70
70
70
E0
E0
E0
E0
E0
E0
E0
E0
E0
E0
E0
60
70
70
30
38
18
ENDCHAR
STARTCHAR parenright
ENCODING 41
SWIDTH 335 0
DWIDTH 8 0
BBX 5 23 1 -6
BITMAP
C0
E0
60
70
70
70
38
38
38
38
38
38
38
38
38
38
38
70
70
70
60
E0
C0
ENDCHAR
STARTCHAR asterisk
ENCODING 42
SWIDTH 475 0
DWIDTH 11 0
BBX 8 9 2 8
BITMAP
18
9A
FF
7E
3C
7E
DB
9A
18
ENDCHAR
STARTCHAR plus
ENCODING 43
SWIDTH 833 0
DWIDTH 20 0
BBX 14 14 3 0
BITMAP
0300
0300
0300
0300
0300
0300
FFFC
FFFC
0300
0300
0300
0300
0300
0300
ENDCHAR
STARTCHAR comma
ENCODING 44
SWIDTH 307 0
DWIDTH 7 0
BBX 6 7 1 -4
BITMAP
3C
38
78
70
70
E0
E0
ENDCHAR
STARTCHAR hyphen
ENCODING 45
SWIDTH 416 0
DWIDTH 10 0
BBX 7 3 2 4
BITMAP
FE
FE
FE
ENDCHAR
STARTCHAR period
ENCODING 46
SWIDTH 307 0
DWIDTH 7 0
BBX 4 4 2 0
BITMAP
60
F0
F0
60
ENDCHAR
STARTCHAR slash
ENCODING 47
SWIDTH 454 0
DWIDTH 11 0
BBX 11 20 0 -3
BITMAP
00E0
00C0
01C0
01C0
0180
0380
0300
0700
0600
0E00
0E00
0C00
1C00
1800
3800
3000
7000
7000
6000
E000
ENDCHAR
STARTCHAR zero
ENCODING 48
SWIDTH 612 0
DWIDTH 15 0
BBX 13 17 1 0
BITMAP
0F80
3FE0
3FE0
78F0
7070
E038
E038
E038
E038
E038
E038
E038
7070
78F0
7FE0
3FE0
0F80
ENDCHAR
STARTCHAR one
ENCODING 49
SWIDTH 612 0
DWIDTH 15 0
BBX 6 17 3 0
BITMAP
7C
7C
FC
1C
1C
1C
1C
1C
1C
1C
1C
1C
1C
1C
1C
1C
1C
ENDCHAR
STARTCHAR two
ENCODING 50
SWIDTH 612 0
DWIDTH 15 0
BBX 12 17 1 0
BITMAP
1F80
3FE0
7FE0
F0F0
E070
E070
00F0
00E0
01E0
03C0
0780
0F80
1F00
1E00
3FF0
7FF0
FFF0
ENDCHAR
STARTCHAR three
ENCODING 51
SWIDTH 612 0
DWIDTH 15 0
BBX 12 17 1 0
BITMAP
0F80
3FE0
3FF0
78F0
7070
0070
00F0
03E0
0380
03E0
00F0
0070
E070
F0F0
7FE0
7FE0
1F80
ENDCHAR
STARTCHAR four
ENCODING 52
SWIDTH 612 0
DWIDTH 15 0
BBX 13 17 1 0
BITMAP
00E0
01E0
03E0
03E0
07E0
0EE0
0CE0
1CE0
18E0
30E0
70E0
7FF8
FFF8
FFF8
00E0
00E0
00E0
ENDCHAR
STARTCHAR five
ENCODING 53
SWIDTH 612 0
DWIDTH 15 0
BBX 12 17 1 0
BITMAP
1FF0
1FF0
3FF0
3800
3800
3800
7F80
7FE0
7FE0
40F0
0070
0070
0070
40F0
FFE0
FFC0
3F00
ENDCHAR
STARTCHAR six
ENCODING 54
SWIDTH 612 0
DWIDTH 15 0
BBX 12 17 1 0
BITMAP
07C0
0F80
0F00
1E00
3C00
3C00
7F80
7FE0
FFE0
F0F0
E070
E070
E070
F0F0
7FE0
3FC0
1F80
ENDCHAR
STARTCHAR seven
ENCODING 55
SWIDTH 612 0
DWIDTH 15 0
BBX 12 17 1 0
BITMAP
FFF0
FFF0
FFE0
01E0
01C0
03C0
0380
0780
0700
0F00
0F00
1E00
1E00
1C00
3C00
3800
7800
ENDCHAR
STARTCHAR eight
ENCODING 56
SWIDTH 612 0
DWIDTH 15 0
BBX 12 17 1 0
BITMAP
1F80
3FC0
7FE0
70E0
70E0
70E0
3FC0
1F80
7FE0
70E0
E070
E070
E070
F0F0
7FE0
7FE0
1F80
ENDCHAR
STARTCHAR nine
ENCODING 57
SWIDTH 612 0
DWIDTH 15 0
BBX 12 17 1 0
BITMAP
1F80
3FC0
7FE0
F0F0
E070
E070
E070
F0F0
7FF0
7FE0
1FE0
03C0
03C0
0780
0F00
1F00
3E00
ENDCHAR
STARTCHAR colon
ENCODING 58
SWIDTH 335 0
DWIDTH 8 0
BBX 4 11 2 0
BITMAP
60
F0
F0
60
00
00
00
60
F0
F0
60
ENDCHAR
STARTCHAR semicolon
ENCODING 59
SWIDTH 335 0
DWIDTH 8 0
BBX 6 15 1 -4
BITMAP
18
3C
3C
18
00
00
00
00
3C
38
78
70
60
E0
C0
ENDCHAR
STARTCHAR less
ENCODING 60
SWIDTH 833 0
DWIDTH 20 0
BBX 14 14 3 0
BITMAP
0004
003C
00FC
03F0
1F80
7E00
F800
F800
7E00
1F80
03F0
00FC
003C
0004
ENDCHAR
STARTCHAR equal
ENCODING 61
SWIDTH 833 0
DWIDTH 20 0
BBX 14 7 3 4
BITMAP
FFFC
FFFC
0000
0000
0000
FFFC
FFFC
ENDCHAR
STARTCHAR greater
ENCODING 62
SWIDTH 833 0
DWIDTH 20 0
BBX 14 14 3 0
BITMAP
8000
F000
FC00
3F00
07E0
01F8
007C
007C
01F8
07E0
3F00
FC00
F000
8000
ENDCHAR
STARTCHAR question
ENCODING 63
SWIDTH 579 0
DWIDTH 14 0
BBX 11 17 1 0
BITMAP
1F00
7FC0
7FC0
F1E0
E0E0
00E0
01E0
1FC0
1F00
1C00
1C00
1C00
0000
0C00
1E00
1E00
0C00
ENDCHAR
STARTCHAR at
ENCODING 64
SWIDTH 1000 0
DWIDTH 24 0
BBX 22 21 1 -4
BITMAP
00FF00
03FFC0
0F81E0
1C0070
380018
300018
60798C
61FF0C
C3C70C
C3870C
C7070C
C70618
C70E38
C71E70
E3F7E0
61E7C0
700000
380060
1F01E0
07FF80
01FE00
ENDCHAR
STARTCHAR A
ENCODING 65
SWIDTH 712 0
DWIDTH 17 0
BBX 17 17 0 0
BITMAP
03E000
03E000
07E000
07F000
077000
0F7800
0E7800
0E3800
1E3C00
1C3C00
3FFC00
3FFE00
3FFE00
780F00
780F00
700F00
F00780
ENDCHAR
STARTCHAR B
ENCODING 66
SWIDTH 597 0
DWIDTH 14 0
BBX 12 17 2 0
BITMAP
FF00
FFC0
FFC0
E1E0
E0E0
E0E0
E1E0
FFC0
FF00
FFE0
E0F0
E070
E070
E0F0
FFE0
FFC0
FF00
ENDCHAR
STARTCHAR C
ENCODING 67
SWIDTH 717 0
DWIDTH 17 0
BBX 15 17 1 0
BITMAP
03F8
0FFE
1FFE
3E0E
7802
F000
E000
E000
E000
E000
E000
F000
7802
3C0E
1FFE
0FFE
03F8
ENDCHAR
STARTCHAR D
ENCODING 68
SWIDTH 752 0
DWIDTH 18 0
BBX 15 17 2 0
BITMAP
FF80
FFE0
FFF8
E07C
E01C
E01E
E00E
E00E
E00E
E00E
E00E
E01E
E01C
E07C
FFF8
FFF0
FF80
ENDCHAR
STARTCHAR E
ENCODING 69
SWIDTH 570 0
DWIDTH 14 0
BBX 10 17 2 0
BITMAP
FFC0
FFC0
FFC0
E000
E000
E000
E000
FFC0
FFC0
FFC0
E000
E000
E000
E000
FFC0
FFC0
FFC0
ENDCHAR
STARTCHAR F
ENCODING 70
SWIDTH 539 0
DWIDTH 13 0
BBX 10 17 2 0
BITMAP
FFC0
FFC0
FFC0
E000
E000
E000
E000
FFC0
FFC0
FFC0
E000
E000
E000
E000
E000
E000
E000
ENDCHAR
STARTCHAR G
ENCODING 71
SWIDTH 803 0
DWIDTH 19 0
BBX 17 17 1 0
BITMAP
03F000
0FFC00
3FFE00
3C0F00
780200
F00000
E00000
E00000
E03F80
E03F80
E03F80
F00380
780300
3E0F00
3FFE00
0FFC00
03F000
ENDCHAR
STARTCHAR H
ENCODING 72
SWIDTH 774 0
DWIDTH 19 0
BBX 15 17 2 0
BITMAP
E00E
E00E
E00E
E00E
E00E
E00E
E00E
FFFE
FFFE
FFFE
E00E
E00E
E00E
E00E
E00E
E00E
E00E
ENDCHAR
STARTCHAR I
ENCODING 73
SWIDTH 318 0
DWIDTH 8 0
BBX 3 17 2 0
BITMAP
E0
E0
E0
E0
E0
E0
E0
E0
E0
E0
E0
E0
E0
E0
E0
E0
E0
ENDCHAR
STARTCHAR J
ENCODING 74
SWIDTH 443 0
DWIDTH 11 0
BBX 8 17 0 0
BITMAP
07
07
07
07
07
07
07
07
07
07
07
07
27
E7
FF
7E
3C
ENDCHAR
STARTCHAR K
ENCODING 75
SWIDTH 647 0
DWIDTH 16 0
BBX 14 17 2 0
BITMAP
E07C
E0F8
E1F0
E3E0
E3C0
E780
EF00
FE00
FF00
EF80
E780
E7C0
E3E0
E1E0
E1F0
E0F8
E07C
ENDCHAR
STARTCHAR L
ENCODING 76
SWIDTH 493 0
DWIDTH 12 0
BBX 10 17 2 0
BITMAP
E000
E000
E000
E000
E000
E000
E000
E000
E000
E000
E000
E000
E000
E000
FFC0
FFC0
FFC0
ENDCHAR
STARTCHAR M
ENCODING 77
SWIDTH 888 0
DWIDTH 21 0
BBX 20 17 0 0
BITMAP
3C03C0
3E07C0
3E07C0
3E07C0
3F0FC0
3F0FC0
3B0DC0
7B9DE0
739CE0
7198E0
71F8E0
71F8E0
70F0E0
70F0E0
F0F0F0
F0F0F0
E06070
ENDCHAR
STARTCHAR N
ENCODING 78
SWIDTH 833 0
DWIDTH 20 0
BBX 16 17 2 0
BITMAP
F007
F807
FC07
FE07
FE07
EF07
EF87
E7C7
E3E7
E3E7
E1F7
E0FF
E07F
E03F
E03F
E01F
E00F
ENDCHAR
STARTCHAR O
ENCODING 79
SWIDTH 860 0
DWIDTH 21 0
BBX 18 17 1 0
BITMAP
03F000
0FFC00
1FFE00
3C0F00
780780
700380
E001C0
E001C0
E001C0
E001C0
E001C0
700380
780780
3C0F00
1FFE00
0FFC00
03F000
ENDCHAR
STARTCHAR P
ENCODING 80
SWIDTH 556 0
DWIDTH 13 0
BBX 11 17 2 0
BITMAP
FF00
FF80
FFC0
E1E0
E0E0
E0E0
E0E0
E1E0
FFC0
FF80
FF00
E000
E000
E000
E000
E000
E000
ENDCHAR
STARTCHAR Q
ENCODING 81
SWIDTH 860 0
DWIDTH 21 0
BBX 18 19 1 -2
BITMAP
03F000
0FFC00
1FFE00
3C0F00
780780
700380
E001C0
E001C0
E001C0
E001C0
E001C0
70F3C0
787F80
3C3F80
1FFF00
0FFF00
03FF00
000380
0003C0
ENDCHAR
STARTCHAR R
ENCODING 82
SWIDTH 605 0
DWIDTH 15 0
BBX 13 17 2 0
BITMAP
FF00
FFE0
FFE0
E0F0
E070
E070
E0E0
FFC0
FF80
EC00
EE00
E700
E380
E1C0
E1E0
E0F0
E078
ENDCHAR
STARTCHAR S
ENCODING 83
SWIDTH 560 0
DWIDTH 13 0
BBX 12 17 1 0
BITMAP
1F80
7FC0
7FE0
F040
E000
F000
7C00
7F80
1FC0
07E0
00F0
0070
4070
60F0
FFE0
7FC0
1F80
ENDCHAR
STARTCHAR T
ENCODING 84
SWIDTH 541 0
DWIDTH 13 0
BBX 11 17 1 0
BITMAP
FFE0
FFE0
FFE0
0E00
0E00
0E00
0E00
0E00
0E00
0E00
0E00
0E00
0E00
0E00
0E00
0E00
0E00
ENDCHAR
STARTCHAR U
ENCODING 85
SWIDTH 772 0
DWIDTH 19 0
BBX 15 17 2 0
BITMAP
E00E
E00E
E00E
E00E
E00E
E00E
E00E
E00E
E00E
E00E
E00E
E00E
F01E
783C
7FFC
3FF8
0FE0
ENDCHAR
STARTCHAR V
ENCODING 86
SWIDTH 668 0
DWIDTH 16 0
BBX 17 17 0 0
BITMAP
F80F80
780F00
780F00
7C1F00
3C1E00
3C1E00
1E3C00
1E3C00
1E3C00
0F7800
0F7800
077000
077000
036000
03E000
03E000
01C000
ENDCHAR
STARTCHAR W
ENCODING 87
SWIDTH 1004 0
DWIDTH 24 0
BBX 23 17 0 0
BITMAP
E0380E
F07C1E
707C1C
706C1C
70EE1C
78EE3C
38EE38
38EE38
39C738
3DC778
3DC778
1DC770
1F83F0
1F83F0
1F83F0
0F01E0
0F01E0
ENDCHAR
STARTCHAR X
ENCODING 88
SWIDTH 600 0
DWIDTH 14 0
BBX 15 17 0 0
BITMAP
F03E
783C
3C78
3C78
1EF0
0EE0
0FE0
07C0
07C0
07C0
0FE0
1EF0
1EF0
3C78
3878
783C
F01E
ENDCHAR
STARTCHAR Y
ENCODING 89
SWIDTH 605 0
DWIDTH 15 0
BBX 15 17 0 0
BITMAP
F83E
783C
3C78
3C78
1EF0
0EE0
0EE0
07C0
0380
0380
0380
0380
0380
0380
0380
0380
0380
ENDCHAR
STARTCHAR Z
ENCODING 90
SWIDTH 633 0
DWIDTH 15 0
BBX 15 17 0 0
BITMAP
7FFE
7FFC
7FF8
0078
00F0
01E0
01E0
03C0
07C0
0780
0F00
0F00
1E00
3C00
3FFE
7FFE
FFFE
ENDCHAR
STARTCHAR bracketleft
ENCODING 91
SWIDTH 335 0
DWIDTH 8 0
BBX 5 23 2 -6
BITMAP
F8
F8
F8
E0
E0
E0
E0
E0
E0
E0
E0
E0
E0
E0
E0
E0
E0
E0
E0
E0
F8
F8
F8
ENDCHAR
STARTCHAR backslash
ENCODING 92
SWIDTH 454 0
DWIDTH 11 0
BBX 11 20 0 -3
BITMAP
E000
6000
7000
7000
3000
3800
1800
1C00
0C00
0E00
0E00
0600
0700
0300
0380
0180
01C0
01C0
00C0
00E0
ENDCHAR
STARTCHAR bracketright
ENCODING 93
SWIDTH 335 0
DWIDTH 8 0
BBX 5 23 1 -6
BITMAP
F8
F8
F8
38
38
38
38
38
38
38
38
38
38
38
38
38
38
38
38
38
F8
F8
F8
ENDCHAR
STARTCHAR asciicircum
ENCODING 94
SWIDTH 1000 0
DWIDTH 24 0
BBX 14 7 5 10
BITMAP
0780
0FC0
0FC0
1CE0
3870
7038
E01C
ENDCHAR
STARTCHAR underscore
ENCODING 95
SWIDTH 500 0
DWIDTH 12 0
BBX 12 2 0 -6
BITMAP
FFF0
FFF0
ENDCHAR
STARTCHAR grave
ENCODING 96
SWIDTH 500 0
DWIDTH 12 0
BBX 5 4 3 13
BITMAP
E0
70
30
18
ENDCHAR
STARTCHAR a
ENCODING 97
SWIDTH 610 0
DWIDTH 15 0
BBX 12 12 1 0
BITMAP
1F70
7FF0
70F0
F070
E070
E070
E070
E070
F070
70F0
3FF0
1F70
ENDCHAR
STARTCHAR b
ENCODING 98
SWIDTH 616 0
DWIDTH 15 0
BBX 12 18 2 0
BITMAP
E000
E000
E000
E000
E000
E000
EF80
FFE0
F0E0
E0F0
E070
E070
E070
E070
E0F0
F0E0
FFC0
EF80
ENDCHAR
STARTCHAR c
ENCODING 99
SWIDTH 458 0
DWIDTH 11 0
BBX 9 12 1 0
BITMAP
1F80
3F80
7880
F080
E000
E000
E000
E000
F080
7880
3F80
1F80
ENDCHAR
STARTCHAR d
ENCODING 100
SWIDTH 616 0
DWIDTH 15 0
BBX 12 18 1 0
BITMAP
0070
0070
0070
0070
0070
0070
1F70
7FF0
70F0
F070
E070
E070
E070
E070
F070
70F0
3FF0
1F70
ENDCHAR
STARTCHAR e
ENCODING 101
SWIDTH 573 0
DWIDTH 14 0
BBX 12 12 1 0
BITMAP
1F80
3FE0
70E0
E070
FFF0
FFF0
E000
E000
F000
70E0
3FF0
1FC0
ENDCHAR
STARTCHAR f
ENCODING 102
SWIDTH 331 0
DWIDTH 8 0
BBX 7 18 1 0
BITMAP
1E
7E
70
70
70
70
FC
FC
70
70
70
70
70
70
70
70
70
70
ENDCHAR
STARTCHAR g
ENCODING 103
SWIDTH 616 0
DWIDTH 15 0
BBX 12 17 1 -5
BITMAP
1F70
7FF0
70F0
F070
E070
E070
E070
E070
F070
70F0
3FF0
1F70
0070
0070
70F0
3FE0
1F80
ENDCHAR
STARTCHAR h
ENCODING 104
SWIDTH 618 0
DWIDTH 15 0
BBX 12 18 2 0
BITMAP
E000
E000
E000
E000
E000
E000
E7C0
FFE0
F8F0
F070
E070
E070
E070
E070
E070
E070
E070
E070
ENDCHAR
STARTCHAR i
ENCODING 105
SWIDTH 285 0
DWIDTH 7 0
BBX 4 19 1 0
BITMAP
60
F0
F0
60
00
00
00
70
70
70
70
70
70
70
70
70
70
70
70
ENDCHAR
STARTCHAR j
ENCODING 106
SWIDTH 285 0
DWIDTH 7 0
BBX 4 24 1 -5
BITMAP
60
F0
F0
60
00
00
00
70
70
70
70
70
70
70
70
70
70
70
70
70
70
70
70
70
ENDCHAR
STARTCHAR k
ENCODING 107
SWIDTH 564 0
DWIDTH 14 0
BBX 12 18 2 0
BITMAP
E000
E000
E000
E000
E000
E000
E1F0
E3E0
E7C0
E780
EF00
FE00
EF00
EF80
E780
E3C0
E1E0
E1F0
ENDCHAR
STARTCHAR l
ENCODING 108
SWIDTH 285 0
DWIDTH 7 0
BBX 3 18 2 0
BITMAP
E0
E0
E0
E0
E0
E0
E0
E0
E0
E0
E0
E0
E0
E0
E0
E0
E0
E0
ENDCHAR
STARTCHAR m
ENCODING 109
SWIDTH 909 0
DWIDTH 22 0
BBX 19 12 2 0
BITMAP
E7C780
FFFFC0
F1F1E0
E0E0E0
E0E0E0
E0E0E0
E0E0E0
E0E0E0
E0E0E0
E0E0E0
E0E0E0
E0E0E0
ENDCHAR
STARTCHAR n
ENCODING 110
SWIDTH 618 0
DWIDTH 15 0
BBX 12 12 2 0
BITMAP
E7C0
FFE0
F8F0
F070
E070
E070
E070
E070
E070
E070
E070
E070
ENDCHAR
STARTCHAR o
ENCODING 111
SWIDTH 608 0
DWIDTH 15 0
BBX 13 12 1 0
BITMAP
0F80
3FE0
78F0
7070
E038
E038
E038
E038
7070
78F0
3FE0
0F80
ENDCHAR
STARTCHAR p
ENCODING 112
SWIDTH 616 0
DWIDTH 15 0
BBX 12 17 2 -5
BITMAP
EF80
FFE0
F1E0
E0F0
E070
E070
E070
E070
E0F0
F0E0
FFC0
EF80
E000
E000
E000
E000
E000
ENDCHAR
STARTCHAR q
ENCODING 113
SWIDTH 616 0
DWIDTH 15 0
BBX 12 17 1 -5
BITMAP
1F70
7FF0
70F0
F070
E070
E070
E070
E070
F070
70F0
3FF0
1F70
0070
0070
0070
0070
0070
ENDCHAR
STARTCHAR r
ENCODING 114
SWIDTH 407 0
DWIDTH 10 0
BBX 8 12 2 0
BITMAP
E7
EF
FF
F1
E0
E0
E0
E0
E0
E0
E0
E0
ENDCHAR
STARTCHAR s
ENCODING 115
SWIDTH 456 0
DWIDTH 11 0
BBX 9 12 1 0
BITMAP
3E00
7F80
E100
E000
F800
FE00
3F00
0F80
0380
6380
FF00
3E00
ENDCHAR
STARTCHAR t
ENCODING 116
SWIDTH 309 0
DWIDTH 7 0
BBX 7 16 0 0
BITMAP
38
38
38
38
FE
FE
38
38
38
38
38
38
38
38
38
38
ENDCHAR
STARTCHAR u
ENCODING 117
SWIDTH 619 0
DWIDTH 15 0
BBX 12 12 2 0
BITMAP
E070
E070
E070
E070
E070
E070
E070
E070
E070
F0E0
7FE0
1F80
ENDCHAR
STARTCHAR v
ENCODING 118
SWIDTH 514 0
DWIDTH 12 0
BBX 13 12 0 0
BITMAP
F078
78F0
78F0
78F0
38E0
3DE0
1DC0
1DC0
0D80
0F80
0F80
0700
ENDCHAR
STARTCHAR w
ENCODING 119
SWIDTH 816 0
DWIDTH 20 0
BBX 20 12 0 0
BITMAP
F0F0F0
F0F0F0
70F0E0
78F1E0
79F9E0
39D9C0
3D9BC0
3D9BC0
1F9F80
1F9F80
1F0F80
0F0F00
ENDCHAR
STARTCHAR x
ENCODING 120
SWIDTH 498 0
DWIDTH 12 0
BBX 12 12 0 0
BITMAP
F0F0
79E0
39C0
3F80
1F80
0F00
1F00
1F80
3FC0
39C0
79E0
F0F0
ENDCHAR
STARTCHAR y
ENCODING 121
SWIDTH 514 0
DWIDTH 12 0
BBX 13 17 0 -5
BITMAP
F078
70F0
78F0
78F0
3DE0
3DE0
1DC0
1DC0
0F80
0F80
0F80
0F00
0F00
1E00
1E00
1E00
3C00
ENDCHAR
STARTCHAR z
ENCODING 122
SWIDTH 480 0
DWIDTH 12 0
BBX 11 12 0 0
BITMAP
7FE0
7FC0
03C0
0780
0F00
0F00
1E00
1E00
3C00
7800
7FE0
FFE0
ENDCHAR
STARTCHAR braceleft
ENCODING 123
SWIDTH 500 0
DWIDTH 12 0
BBX 9 22 2 -5
BITMAP
0F80
1F80
1C00
1C00
1C00
1C00
1C00
1C00
1C00
3C00
F800
F800
3C00
1C00
1C00
1C00
1C00
1C00
1C00
1C00
1F80
0F80
ENDCHAR
STARTCHAR bar
ENCODING 124
SWIDTH 500 0
DWIDTH 12 0
BBX 2 24 5 -6
BITMAP
C0
C0
C0
C0
C0
C0
C0
C0
C0
C0
C0
C0
C0
C0
C0
C0
C0
C0
C0
C0
C0
C0
C0
C0
ENDCHAR
STARTCHAR braceright
ENCODING 125
SWIDTH 500 0
DWIDTH 12 0
BBX 9 22 1 -5
BITMAP
F800
FC00
1C00
1C00
1C00
1C00
1C00
1C00
1C00
1E00
0F80
0F80
1E00
1C00
1C00
1C00
1C00
1C00
1C00
1C00
FC00
F800
ENDCHAR
STARTCHAR asciitilde
ENCODING 126
SWIDTH 833 0
DWIDTH 20 0
BBX 16 4 2 5
BITMAP
3E01
7FC3
C1FE
807C
ENDCHAR
STARTCHAR nonbreakingspace
ENCODING 160
SWIDTH 612 0
DWIDTH 15 0
BBX 1 1 0 0
BITMAP
00
ENDCHAR
STARTCHAR degree
ENCODING 176
SWIDTH 329 0
DWIDTH 8 0
BBX 7 7 0 10
BITMAP
38
44
82
82
82
44
38
ENDCHAR
ENDFONT
